<svg xmlns="http://www.w3.org/2000/svg" width="1000" height="1000" viewBox="0 0 1000 1000" version="1.1"><path d="M 112.750 431.754 L 0 432.009 0 472.883 L 0 513.757 85.250 514.403 C 200.480 515.276, 997.050 514.546, 999.250 513.566 C 1000.876 512.841, 1000.999 509.872, 1000.985 471.643 C 1000.976 449.014, 1000.639 430.950, 1000.235 431.500 C 999.746 432.165, 869.922 432.333, 612.500 432 C 399.650 431.725, 174.763 431.614, 112.750 431.754 M 0.457 473 C 0.457 495.825, 0.588 505.163, 0.749 493.750 C 0.909 482.338, 0.909 463.663, 0.749 452.250 C 0.588 440.838, 0.457 450.175, 0.457 473" stroke="none" fill="#da052d" fill-rule="evenodd"/><path d="M 144 349.682 C 134.258 351.344, 122.217 356.731, 113.354 363.393 C 94.921 377.250, 84.671 400.346, 86.568 423.750 L 87.237 432 141.868 432 L 196.500 432 196.389 390.750 L 196.278 349.500 171.389 349.378 C 157.700 349.311, 145.375 349.447, 144 349.682 M 225.239 390.250 L 225.500 431.500 280.250 431.759 L 335 432.017 335 390.509 L 335 349 279.989 349 L 224.978 349 225.239 390.250 M 377 390.500 L 377 432 432 432 L 487 432 487 390.500 L 487 349 432 349 L 377 349 377 390.500 M 666 390.500 L 666 432 721.500 432 L 777 432 777 390.500 L 777 349 721.500 349 L 666 349 666 390.500 M 806 390.500 L 806 432 861 432 L 916 432 916 390.500 L 916 349 861 349 L 806 349 806 390.500 M 516 390.886 L 516 432 567.456 432 L 618.911 432 617.487 427.963 C 610.844 409.134, 593.049 386.466, 573.665 372.139 C 560.673 362.536, 537.237 352.958, 520.649 350.470 L 516 349.773 516 390.886 M 86 556.508 L 86 598.017 141.072 597.758 L 196.144 597.500 196.322 556.250 L 196.500 515 141.250 515 L 86 515 86 556.508 M 225 556.617 L 225 598.234 251.250 597.721 C 280.707 597.144, 283.968 596.591, 297.733 589.843 C 312.967 582.374, 325.880 567.526, 331.723 550.762 C 334.413 543.043, 335.947 525.859, 334.590 518.629 L 333.909 515 279.455 515 L 225 515 225 556.617 M 377 556.500 L 377 598 432 598 L 487 598 487 556.500 L 487 515 432 515 L 377 515 377 556.500 M 516 555.975 L 516 596.950 519.250 596.376 C 535.664 593.477, 548.060 589.305, 560.935 582.348 C 572.748 575.964, 579.033 571.159, 590.175 559.989 C 602.391 547.744, 612.298 532.659, 617.915 517.750 L 618.950 515 567.475 515 L 516 515 516 555.975 M 666.239 556.250 L 666.500 597.500 721.500 597.500 L 776.500 597.500 776.761 556.250 L 777.022 515 721.500 515 L 665.978 515 666.239 556.250 M 806 556.475 L 806 597.950 808.750 597.521 C 810.263 597.285, 814.650 596.826, 818.500 596.500 C 853.119 593.574, 887.738 569.206, 903.815 536.448 C 907.101 529.750, 912 517.212, 912 515.496 C 912 515.223, 888.150 515, 859 515 L 806 515 806 556.475" stroke="none" fill="#362d83" fill-rule="evenodd"/></svg>