<?xml version="1.0" encoding="utf-8"?>
<!-- Uploaded to: SVG Repo, www.svgrepo.com, Generator: SVG Repo Mixer Tools -->
<svg width="800px" height="800px" viewBox="0 0 64 64" xmlns="http://www.w3.org/2000/svg">
<path d="m21.83 26.32-2.75-2.25s-3.91 4.33-4.91 5-2 .83-3.8-.54-7.83-8.21-7.83-9.63 7.71-9.5 9.33-11.25 3-4 5.3-3.37 10.37 6.91 10.83 7.91 0 2.59-1.79 4.63-4.55 4.58-4.55 4.58l2.8 2.34s5.25-5.84 5.7-6.42 3.05-2.5 5.21-.92 11.09 9.21 11.63 9.6a3.13 3.13 0 0 1 .79 4.71c-1.87 2.62-7.46 8.33-7.33 8.41s2.66 2.5 2.66 2.5 5.38-6.79 6-7.37a3.66 3.66 0 0 1 5.09-.34 44.81 44.81 0 0 1 6.79 6.16c.38.67 1 1.71-.71 4s-11.87 14.54-12.5 15.12-2 1.09-3.87.05a71.75 71.75 0 0 1 -7.55-6.17c-.37-.42-1.2-.71-.25-2.21s5.13-6.54 5.17-6.79a16.09 16.09 0 0 0 -2.83-3 42.28 42.28 0 0 1 -5.38 6.13c-2.08 1.8-2.79 2.37-4.21 2.12s-6.08-4.46-6.08-4.46l-.83.88a10.94 10.94 0 0 1 3 6.33c.25 3.62-1 6-1.33 6s-7.92-6.21-7.92-6.21-2.71 2.75-3.21 3.21l-.67.58s1.38 2.63-1.33 3.46-3.67-1.11-3.5-2.54 2-2.21 2.41-2.29a3.8 3.8 0 0 1 1.05 0l2.62-5.28s-5.79-5.1-5.87-5.72.87-1.5 3.16-1.59 8.05 1.75 8.05 1.75l1.16-1.79s-3.21-2.87-3.79-3.46a2.25 2.25 0 0 1 -.37-2.66c.5-1.25 6.41-9.21 6.41-9.21z" fill="#1d1d1b"/>
<g fill="#cbe7f5">
<path d="m4.54 18.82c-.08-.38 1.79-2.42 2-2.29s1.84 1.37 1.67 1.58-2.04 2.71-2.21 2.58a9.72 9.72 0 0 1 -1.46-1.87z"/>
<path d="m6.58 21.36a12.57 12.57 0 0 1 2.63-2.58c.16.12 2.66 2.41 2.58 2.71a17.69 17.69 0 0 1 -2.5 3.16c-.17-.08-2.71-3.25-2.71-3.29z"/>
<path d="m9.92 25.19a25.16 25.16 0 0 1 2.91-3c.21.09 3 2.71 2.88 3s-2 3.09-3.17 2.59a8.69 8.69 0 0 1 -2.62-2.59z"/>
<path d="m7.29 15.36c-.07-.2 2.08-2.54 2.38-2.46s1.87 1.25 1.7 1.54-2.08 2.88-2.37 2.75a13.48 13.48 0 0 1 -1.71-1.83z"/>
<path d="m10.58 11.82a22.11 22.11 0 0 1 2.42-2.42c.17.09 1.79 1.46 1.62 1.63s-2.16 2.71-2.33 2.58a21.41 21.41 0 0 1 -1.71-1.79z"/>
<path d="m13.62 8.44s1.88-2.5 2.59-2.44 2.33.87 2.16 1.08a39.59 39.59 0 0 1 -3 3 23 23 0 0 1 -1.75-1.64z"/>
<path d="m9.92 18.11c0 .27 2.16-3 2.37-2.87s3.17 2.12 3 2.41a20.14 20.14 0 0 1 -2.87 3.21c-.09-.17-2.5-2.79-2.5-2.75z"/>
<path d="m13.25 21.28c.17-.17 3-2.79 3-2.79s3.08 2.41 3 2.75a20.12 20.12 0 0 1 -2.79 3.2c-.17-.08-3.21-3.16-3.21-3.16z"/>
<path d="m13 14.4a15.59 15.59 0 0 1 2.46-2.54 19.56 19.56 0 0 1 2.91 2.54 21.92 21.92 0 0 1 -2.2 2.5 29.79 29.79 0 0 1 -3.17-2.5z"/>
<path d="m16.25 10.78c-.05-.14 3.21-3.25 3.21-3.25a30.24 30.24 0 0 1 3.16 2.41c-.12.13-3.25 3.71-3.5 3.55s-2.83-2.59-2.87-2.71z"/>
<path d="m16.71 17.78s2.37-2.75 2.5-2.71 3.25 2.62 3.12 2.83a27.18 27.18 0 0 1 -2.33 2.59 30.78 30.78 0 0 1 -3.29-2.71z"/>
<path d="m20 14.19c.08-.12 3.46-3.79 3.58-3.79s2.79 1.6 2.42 2.84a13.14 13.14 0 0 1 -2.79 3.76c-.13-.06-3.21-2.81-3.21-2.81z"/>
</g>
<path d="m19.71 23c-.25-.1.91-1.17 1.12-1.09a16.36 16.36 0 0 1 2.71 2.59 8.52 8.52 0 0 1 -1 1.08s-2.62-2.47-2.83-2.58z" fill="#fab900"/>
<path d="m18.46 34.11c1.27-1.7 8-9.92 10.5-12.75s4.21-4.12 5.58-3.58 9.92 8.22 10.75 8.83 2 1.71 1.21 3.25-7.5 8.25-7.5 8.25a9.06 9.06 0 0 0 -.84-1.87c-.16 0-.54.45-.54.45a12 12 0 0 1 .75 2.13c-.08.17-1 1.17-1 1.17a16.76 16.76 0 0 0 -.75-2.38c-.12 0-.46.46-.46.46s.8 2.42.59 2.62-1.09 1.21-1.09 1.21l-.75-2.21s-.75.25-.62.46a15.07 15.07 0 0 1 .71 2.38 2.11 2.11 0 0 1 -.33.5l-1-2.46-.55.58a18.15 18.15 0 0 1 .92 2.5 11.74 11.74 0 0 1 -.75 1l-.87-2.37s-.55.16-.5.41.83 2.29.66 2.54-.54.88-.54.88a12.93 12.93 0 0 0 -1.12-2.54c-.21 0-.59.33-.55.46s1.13 2.5.92 2.7a5.6 5.6 0 0 1 -.79.55 15.07 15.07 0 0 0 -.79-2.38c-.17 0-.75 0-.67.17a10.74 10.74 0 0 1 .54 2.54c-.16 0-1-.33-4.16-2.83s-8.3-7.38-8.42-8.09 1.08-2.08 1.46-2.58z" fill="#e7413e"/>
<path d="m9.92 43.36a19.25 19.25 0 0 1 6.12.92c2.75.83 3.71 1.41 5 3.25a16.63 16.63 0 0 1 2 6.12c0 .63 0 1.38-.25 1.29s-1.17-.62-1.13-.75.25-3.12 0-3.41a3.51 3.51 0 0 0 -.83-.54 23.05 23.05 0 0 1 -.21 3.08l-.62-.63a12.29 12.29 0 0 0 -.13-2.45c-.17-.13-.58-.42-.71-.38s0 2.21-.21 2.13-3.91-3.63-5.62-5.3-3.62-3.16-3.41-3.33z" fill="#e6e4da"/>
<path d="m13.83 49.86c.2-.11 1.59 1.17 1.25 1.54a37.94 37.94 0 0 1 -3.46 3.54c-.2 0-.58 0-.41-.25s2.33-4.69 2.62-4.83z" fill="#92a0d1"/>
<path d="m9.21 55.61a1.62 1.62 0 0 1 1.91 1.71c-.2.87-2.2 1.62-2.91.54s.37-2.04 1-2.25z" fill="#e6e4da"/>
<path d="m20.5 42.61c.15-.15 1.87 1.29 1.62 1.54s-.58.63-.75.59-.91-.67-1.25-.8.17-1.12.38-1.33z" fill="#92a0d1"/>
<path d="m29.62 23.24c-.21-.43 2.67-3.17 3-3s.79.08.59.45a20.77 20.77 0 0 1 -2.8 3.13c-.29 0-.74-.5-.79-.58z" fill="#1d1d1b"/>
<path d="m33.83 29.11c-.17-.51 4-4.83 4.25-4.83s2.5 1.66 2.29 2.16-4.16 4.88-4.45 4.8a9.21 9.21 0 0 1 -2.09-2.13z" fill="#1d1d1b"/>
<path d="m37.58 32.24c0-.19 4.21-5.13 4.54-5s2.25 1.54 2.09 1.87-4 5.25-4.29 5.17a10.07 10.07 0 0 1 -2.34-2.04z" fill="#1d1d1b"/>
<path d="m38 25.65c.23-.07 1.17.88 1 1s-2.75 3.35-3 3.25-1.13-.79-1-.9a32.28 32.28 0 0 1 3-3.35z" fill="#92a0d1"/>
<path d="m39 32c-.26-.07 3.12-3.54 3.33-3.5s.92.5.79.66a41.35 41.35 0 0 1 -3.25 3.84c-.16-.1-.75-.93-.87-1z" fill="#92a0d1"/>
<path d="m32 31.15c.55-.2 4.38 3.17 4.33 3.59s-6.5 8.5-7.12 9.08-1.46.87-1.79.62-4.42-3.62-4.13-4.44 8.08-8.6 8.71-8.85z" fill="#1d1d1b"/>
<path d="m32.21 32.07c.18-.18 3 2.62 3 2.79s-6.79 8.54-7.09 8.58-3.79-3.12-3.66-3.5 7.33-7.45 7.75-7.87z" fill="#92a0d1"/>
<path d="m25.87 39.82c.17-.08 3.38-4.17 3.55-4.13s.45.21.29.38-3.42 4.54-3.59 4.46-.25-.71-.25-.71z" fill="#1d1d1b"/>
<path d="m26.79 41s2.83-3.17 3-3.17.46.37.33.54a42.23 42.23 0 0 1 -2.79 3.33c-.12-.05-.33-.55-.54-.7z" fill="#1d1d1b"/>
<path d="m40 39.86c.2-.1 2.71 2.25 2.58 2.5s-.5.92-.62.83a21.59 21.59 0 0 1 -2.67-2.54 4.68 4.68 0 0 1 .71-.79z" fill="#fab900"/>
<path d="m47.87 38.78c-.1-.16 2.92-4 3.8-4s2.45 1.41 2.45 1.41-3.45 5-3.66 4.92a28.6 28.6 0 0 1 -2.59-2.33z" fill="#cbe7f5"/>
<path d="m51.42 41.61a44 44 0 0 1 3.79-4.61c.21 0 1.79 1.41 1.71 1.62a46.52 46.52 0 0 1 -3.59 4.75 13.24 13.24 0 0 1 -1.91-1.76z" fill="#cbe7f5"/>
<path d="m54.17 43.94c.2-.29 3.58-4.62 3.58-4.62s2.29 1.42 2 2.21a24 24 0 0 1 -3.5 4.33c-.08-.04-2.08-1.92-2.08-1.92z" fill="#cbe7f5"/>
<path d="m47 39.94a9.87 9.87 0 0 1 2.75 2.42 27.57 27.57 0 0 1 -2.54 3 22.73 22.73 0 0 1 -2.92-2.25 29.12 29.12 0 0 1 2.71-3.17z" fill="#cbe7f5"/>
<path d="m48 46a31.77 31.77 0 0 1 2.79-3.05c.17.09 1.79 1.34 1.67 1.55s-2.59 3.37-2.75 3.2z" fill="#cbe7f5"/>
<path d="m50.5 48.24s2.75-3.38 2.87-3.34a12.16 12.16 0 0 1 2.05 2.1 26.06 26.06 0 0 1 -2.67 3.41c-.13-.05-2.08-2.05-2.25-2.17z" fill="#cbe7f5"/>
<path d="m49.67 49.49a17.14 17.14 0 0 1 2.25 2c-.09.16-1.55 2.46-1.88 2.29s-2.67-1.88-2.54-2a25.79 25.79 0 0 1 2.17-2.29z" fill="#cbe7f5"/>
<path d="m46.62 52.82a21.43 21.43 0 0 1 2.59 2.12c-.09.17-1.34 1.75-2 2.5s-1.21 1.05-2.13.56-1.83-1.21-1.71-1.5 3.25-3.68 3.25-3.68z" fill="#cbe7f5"/>
<path d="m41.67 46.86c0-.21 2-2.71 2.29-2.62s2.54 1.87 2.37 2.08-2 2.5-2.29 2.5a11.62 11.62 0 0 1 -2.37-1.96z" fill="#cbe7f5"/>
<path d="m44.87 49.32a21.41 21.41 0 0 1 2.3-2.42c.16.09 1.75 1.5 1.66 1.71s-1.83 2.39-2.08 2.29a20.09 20.09 0 0 1 -1.88-1.58z" fill="#cbe7f5"/>
<path d="m44 50.65c.33.09 1.91 1.29 1.75 1.5s-2.84 3.63-3.17 3.54-1.54-.87-1.46-1.12 2.88-3.92 2.88-3.92z" fill="#cbe7f5"/>
<path d="m40.67 47.94c.16.09 2.75 2.05 2.54 2.25s-2.75 3.75-3.09 3.67-2.5-1.5-2.2-2.25a31.73 31.73 0 0 1 2.75-3.67z" fill="#cbe7f5"/>
</svg>