<svg xmlns="http://www.w3.org/2000/svg" width="1000" height="1000" viewBox="0 0 1000 1000" version="1.1"><path d="M 335.239 390.250 L 335 432 356 432 L 377 432 376.761 390.250 L 376.523 348.500 376.250 389.750 L 375.978 431 356 431 L 336.022 431 335.750 389.750 L 335.477 348.500 335.239 390.250 M 487.239 390.250 L 487 432 501.500 432 L 516 432 516 391.083 C 516 359.286, 516.279 350.054, 517.250 349.662 C 517.997 349.361, 517.795 349.126, 516.750 349.079 C 515.111 349.005, 515 351.589, 515 390 L 515 431 501.511 431 L 488.022 431 487.750 389.750 L 487.477 348.500 487.239 390.250 M 805 389.973 L 805 430.945 790.750 431.252 L 776.500 431.559 791.250 431.780 L 806 432 806 390.500 C 806 367.675, 805.775 349, 805.500 349 C 805.225 349, 805 367.438, 805 389.973 M 916.239 390.250 L 916 432 956.418 432 C 978.648 432, 997.490 432.251, 998.289 432.557 C 999.088 432.864, 999.968 432.527, 1000.244 431.807 C 1000.654 430.741, 993.029 430.550, 958.884 430.771 L 917.022 431.043 916.750 389.771 L 916.477 348.500 916.239 390.250 M 196.382 362.500 C 196.384 369.100, 196.546 371.670, 196.741 368.211 C 196.937 364.752, 196.936 359.352, 196.738 356.211 C 196.540 353.070, 196.380 355.900, 196.382 362.500 M 224.415 369 C 224.415 379.175, 224.564 383.337, 224.745 378.250 C 224.927 373.162, 224.927 364.837, 224.745 359.750 C 224.564 354.662, 224.415 358.825, 224.415 369 M 536.500 354.413 C 542.550 356.236, 548.400 358.042, 549.500 358.427 C 550.600 358.812, 550.315 358.437, 548.868 357.593 C 545.905 355.867, 529.658 350.974, 527.138 351.049 C 526.237 351.076, 530.450 352.589, 536.500 354.413 M 126.083 354.541 C 114.325 360.015, 103.498 369.492, 96.490 380.448 C 92.601 386.527, 90.381 391.501, 92.003 390.498 C 92.551 390.159, 93 389.405, 93 388.822 C 93 386.537, 100.310 375.907, 105.759 370.269 C 112.464 363.329, 120.401 357.844, 128.634 354.459 C 131.860 353.133, 133.825 352.041, 133 352.034 C 132.175 352.026, 129.062 353.154, 126.083 354.541 M 665.455 390.500 C 665.455 411.950, 665.587 420.583, 665.749 409.684 C 665.911 398.785, 665.910 381.235, 665.748 370.684 C 665.587 360.133, 665.454 369.050, 665.455 390.500 M 563 365.205 C 577.144 373.335, 596.096 390.838, 604.466 403.500 C 609.310 410.828, 610.727 412.489, 608.698 408.462 C 606.709 404.514, 596.910 391.703, 591.633 386.152 C 583.940 378.060, 561.683 361.933, 558.332 362.022 C 557.874 362.034, 559.975 363.467, 563 365.205 M 224.422 410 C 224.422 421.275, 224.568 425.887, 224.746 420.250 C 224.924 414.613, 224.924 405.387, 224.746 399.750 C 224.568 394.113, 224.422 398.725, 224.422 410 M 196.385 407 C 196.385 413.875, 196.545 416.688, 196.740 413.250 C 196.936 409.813, 196.936 404.188, 196.740 400.750 C 196.545 397.313, 196.385 400.125, 196.385 407 M 85.494 412.250 C 85.128 415.688, 85.218 421.200, 85.694 424.500 C 86.457 429.785, 86.557 429.041, 86.533 418.250 C 86.519 411.512, 86.428 406, 86.333 406 C 86.237 406, 85.860 408.813, 85.494 412.250 M 613.894 419.904 C 615.997 424.251, 617.963 428.751, 618.265 429.904 C 618.804 431.966, 619.195 431.996, 642.656 431.769 L 666.500 431.538 642.750 431.251 C 624.223 431.027, 619 430.681, 619 429.679 C 619 428.157, 611.298 412, 610.572 412 C 610.297 412, 611.792 415.557, 613.894 419.904 M 196.320 429.500 C 196.514 431.393, 197.275 431.502, 210.512 431.541 L 224.500 431.582 210.818 431.264 C 198.901 430.987, 197.070 430.724, 196.626 429.223 C 196.242 427.927, 196.166 427.996, 196.320 429.500 M 22.250 431.749 C 34.213 431.908, 53.788 431.908, 65.750 431.749 C 77.713 431.589, 67.925 431.459, 44 431.459 C 20.075 431.459, 10.288 431.589, 22.250 431.749 M 956.539 513.750 C 932.911 513.899, 913.245 514.354, 912.838 514.761 C 912.432 515.167, 931.751 515.378, 955.770 515.229 C 982.547 515.063, 999.821 514.579, 1000.421 513.979 C 1001.005 513.395, 1001.017 513.096, 1000.450 513.239 C 999.928 513.370, 980.168 513.600, 956.539 513.750 M 42.989 514.744 L 84.978 515.022 85.239 556.761 L 85.500 598.500 141.250 598.758 C 171.913 598.901, 197 598.676, 197 598.258 C 197 597.841, 172.030 597.620, 141.511 597.767 L 86.022 598.033 85.761 556.267 L 85.500 514.500 43.250 514.484 L 1 514.467 42.989 514.744 M 196.944 515.722 C 195.795 517.238, 195.803 517.316, 196.998 516.250 C 197.965 515.388, 202.372 515, 211.189 515 L 223.978 515 224.239 556.750 L 224.500 598.500 251 598.397 C 272.808 598.311, 278.297 598.004, 282 596.662 C 284.595 595.722, 285.230 595.281, 283.500 595.621 C 274.675 597.356, 265.442 597.938, 246.261 597.967 L 225.022 598 224.761 556.250 L 224.500 514.500 211.396 514.222 C 199.810 513.976, 198.135 514.150, 196.944 515.722 M 334.353 515.523 C 334.023 516.383, 334.034 517.367, 334.376 517.710 C 334.719 518.053, 335 517.583, 335 516.667 C 335 515.165, 337.033 515, 355.489 515 L 375.978 515 376.239 556.750 L 376.500 598.500 432 598.500 L 487.500 598.500 487.761 556.750 L 488.022 515 501.500 515 L 514.978 515 515.239 556.250 L 515.500 597.500 519.196 597.178 C 521.229 597.001, 524.154 596.448, 525.696 595.949 C 527.922 595.229, 527.572 595.156, 524 595.594 C 521.525 595.898, 518.718 596.367, 517.761 596.637 C 516.132 597.097, 516.006 594.510, 515.761 555.814 L 515.500 514.500 501.500 514.500 L 487.500 514.500 487.239 556.250 L 486.978 598 432 598 L 377.022 598 376.761 556.250 L 376.500 514.500 355.726 514.230 C 337.645 513.994, 334.875 514.162, 334.353 515.523 M 619.324 515.231 C 617.742 517.688, 611.961 531.439, 612.915 530.475 C 613.447 529.939, 615.223 526.350, 616.862 522.500 L 619.842 515.500 642.410 515.231 L 664.978 514.963 665.239 556.731 L 665.500 598.500 721.250 598.758 C 751.913 598.901, 777 598.676, 777 598.258 C 777 597.841, 752.138 597.500, 721.750 597.500 L 666.500 597.500 666 556 L 665.500 514.500 642.821 514.231 C 625.357 514.025, 619.953 514.255, 619.324 515.231 M 777.670 514.722 C 777.405 515.150, 783.334 515.500, 790.844 515.500 L 804.500 515.500 805 557 L 805.500 598.500 812 598.148 C 815.575 597.955, 820.300 597.430, 822.500 596.981 C 825.326 596.405, 824.153 596.306, 818.500 596.643 C 814.100 596.906, 809.492 597.326, 808.261 597.576 L 806.022 598.033 805.761 556.266 L 805.500 514.500 791.826 514.222 C 784.306 514.070, 777.935 514.295, 777.670 514.722 M 335.197 527.500 C 335.076 532.450, 334.765 538.300, 334.504 540.500 L 334.031 544.500 335.050 540.509 C 335.610 538.315, 335.922 532.465, 335.742 527.509 L 335.415 518.500 335.197 527.500 M 908.959 524.683 C 908.277 526.782, 906.007 531.987, 903.914 536.250 C 901.822 540.513, 900.273 544, 900.473 544 C 901.987 544, 911.715 522.382, 910.671 521.338 C 910.412 521.078, 909.641 522.584, 908.959 524.683 M 196.446 559.500 C 196.447 577.100, 196.583 584.159, 196.749 575.187 C 196.914 566.215, 196.914 551.815, 196.748 543.187 C 196.581 534.559, 196.446 541.900, 196.446 559.500 M 607.382 538.639 C 602.592 546.832, 593.724 557.322, 583.930 566.383 C 579.843 570.163, 577.850 572.259, 579.500 571.041 C 589.913 563.356, 604.849 546.047, 610.385 535.250 C 613.256 529.650, 611.437 531.703, 607.382 538.639 M 894.034 552.545 C 887.305 561.954, 876.787 572.021, 867 578.420 C 858.559 583.940, 855.433 586.530, 861.500 582.978 C 876.039 574.466, 889.893 561.269, 898.483 547.750 C 901.910 542.356, 899.340 545.126, 894.034 552.545 M 330.102 555.136 C 325.766 567.574, 311.422 583.017, 297.754 589.962 C 293.214 592.268, 290.625 593.844, 292 593.464 C 301.531 590.830, 316.763 578.656, 324.163 567.761 C 328.393 561.530, 332.492 553.159, 331.699 552.366 C 331.442 552.108, 330.723 553.355, 330.102 555.136 M 570.888 576.311 C 568.352 578.065, 565.427 580.078, 564.388 580.785 C 563.350 581.492, 564.853 580.863, 567.728 579.388 C 570.603 577.913, 573.711 575.872, 574.633 574.853 C 576.910 572.337, 576.283 572.581, 570.888 576.311 M 557.500 584.223 C 555.300 585.396, 550.350 587.651, 546.500 589.232 C 542.650 590.813, 540.850 591.824, 542.500 591.478 C 545.940 590.756, 562 583.416, 562 582.565 C 562 581.810, 562.070 581.785, 557.500 584.223 M 849.500 588.045 C 847.300 589.102, 843.925 590.644, 842 591.473 C 839.921 592.367, 839.515 592.744, 841 592.399 C 843.990 591.706, 855.933 586.172, 854.500 586.144 C 853.950 586.133, 851.700 586.988, 849.500 588.045 M 401.445 602.282 C 401.175 602.987, 401.076 611.875, 401.227 622.032 L 401.500 640.500 404.750 640.813 L 408 641.127 408 621.063 L 408 601 404.969 601 C 403.301 601, 401.716 601.577, 401.445 602.282 M 318 606 C 318 610.053, 318.058 610.121, 321.250 609.813 C 324.238 609.525, 324.500 609.218, 324.500 606 C 324.500 602.782, 324.238 602.475, 321.250 602.187 C 318.058 601.879, 318 601.947, 318 606 M 557.667 602.667 C 557.300 603.033, 557 605.283, 557 607.667 C 557 611.652, 556.794 612, 554.434 612 C 552.224 612, 551.911 612.382, 552.184 614.750 C 552.410 616.719, 553.139 617.591, 554.750 617.820 C 556.934 618.130, 557 618.475, 557 629.633 L 557 641.127 560.250 640.813 L 563.500 640.500 563.782 629.313 L 564.064 618.127 566.782 617.813 C 568.908 617.568, 569.569 616.901, 569.816 614.750 C 570.101 612.279, 569.822 612, 567.066 612 C 564.053 612, 564 611.913, 564 607 C 564 602.176, 563.900 602, 561.167 602 C 559.608 602, 558.033 602.300, 557.667 602.667 M 709.390 603.427 C 709.088 604.212, 708.990 605.900, 709.171 607.177 C 709.432 609.018, 710.122 609.500, 712.500 609.500 C 715.245 609.500, 715.526 609.181, 715.810 605.750 C 716.108 602.158, 715.990 602, 713.029 602 C 711.273 602, 709.701 602.617, 709.390 603.427 M 93.304 604.956 C 89.383 607.347, 87.307 613.092, 88.880 617.202 C 89.979 620.073, 92.998 621.985, 99.500 623.928 C 110.210 627.128, 112 628.085, 112 630.607 C 112 636.644, 96.306 636.566, 94.007 630.518 C 93.268 628.574, 92.342 628, 89.945 628 C 86.976 628, 86.869 628.141, 87.493 631.250 C 88.810 637.822, 97.599 642.737, 105.688 641.425 C 112.689 640.290, 116.367 637.871, 117.922 633.380 C 119.225 629.617, 119.181 628.991, 117.393 625.887 C 115.745 623.024, 114.288 622.136, 107.971 620.147 C 93.485 615.585, 92.321 614.665, 96.284 610.920 C 99.522 607.860, 107.536 608.680, 110.479 612.372 C 111.823 614.056, 113.556 615, 115.307 615 C 117.778 615, 117.976 614.738, 117.385 612.250 C 115.951 606.216, 110.701 602.998, 102.300 603.004 C 98.316 603.006, 95.499 603.618, 93.304 604.956 M 203.557 620.250 C 197.029 629.737, 191.481 638.288, 191.227 639.250 C 190.863 640.633, 191.402 641, 193.798 641 C 196.280 641, 197.495 640.093, 200.500 636 L 204.170 631 211.030 631 L 217.890 631 218.195 635.750 L 218.500 640.500 232.250 640.778 L 246 641.056 246 638.063 L 246 635.070 235.750 634.785 L 225.500 634.500 225.500 630 L 225.500 625.500 234.500 625 C 243.300 624.511, 243.500 624.444, 243.500 622 C 243.500 619.534, 243.373 619.496, 234.250 619.212 L 225 618.925 225 614.497 L 225 610.070 235.250 609.785 L 245.500 609.500 245.813 606.250 L 246.127 603 230.776 603 L 215.425 603 203.557 620.250 M 445 622 L 445 641 454.750 640.978 C 462.088 640.962, 465.514 640.495, 468.599 639.095 C 482.366 632.842, 481.684 610.362, 467.548 604.456 C 465.325 603.527, 460.614 603, 454.532 603 L 445 603 445 622 M 652 603.852 C 652 604.321, 655.301 612.758, 659.334 622.602 L 666.669 640.500 669.998 640.500 C 673.323 640.500, 673.332 640.487, 678.698 627.500 C 685.634 610.717, 687.999 604.678, 687.999 603.750 C 688 603.337, 686.524 603, 684.719 603 L 681.438 603 675.969 616.999 C 672.961 624.698, 670.275 630.994, 670 630.991 C 669.725 630.987, 667.305 625.250, 664.623 618.242 C 661.941 611.234, 659.298 604.938, 658.750 604.250 C 657.638 602.853, 652 602.521, 652 603.852 M 451.489 610.169 C 451.182 610.968, 451.059 616.770, 451.215 623.061 L 451.500 634.500 456.031 634.796 C 466.672 635.491, 472.534 630.201, 471.699 620.657 C 471.057 613.318, 467.430 610.152, 458.736 609.340 C 453.393 608.841, 451.934 609.008, 451.489 610.169 M 151.767 612.390 C 150.189 613.241, 148.790 613.470, 148.458 612.932 C 148.141 612.419, 146.559 612, 144.941 612 L 142 612 142 631 L 142 650 145.576 650 C 149.073 650, 149.149 649.917, 148.980 646.250 C 148.656 639.244, 148.818 638.604, 150.553 640.044 C 153.017 642.089, 160.266 641.617, 164.256 639.151 C 172.792 633.875, 173.219 619.852, 165.021 614.015 C 161.214 611.304, 155.156 610.561, 151.767 612.390 M 213.500 617.170 C 211.300 620.554, 209.350 623.700, 209.167 624.161 C 208.983 624.623, 210.896 625, 213.417 625 L 218 625 218 618 C 218 614.150, 217.887 611.004, 217.750 611.009 C 217.613 611.014, 215.700 613.786, 213.500 617.170 M 275.071 612.703 C 270.077 615.320, 267.733 619.083, 267.280 625.209 C 266.744 632.464, 269.081 636.796, 275.159 639.812 C 281.393 642.906, 286.126 642.069, 291.250 636.968 C 295.817 632.422, 296.140 630, 292.180 630 C 290.419 630, 288.545 630.938, 287.187 632.500 C 284.757 635.295, 279.700 635.848, 276.789 633.637 C 271.968 629.974, 272.685 621.249, 278.034 618.483 C 282.108 616.376, 283.453 616.607, 286.846 620 C 288.627 621.781, 290.893 623, 292.423 623 C 295.394 623, 295.594 622.049, 293.483 617.967 C 290.563 612.321, 281.012 609.591, 275.071 612.703 M 357.462 612.033 C 350.391 614.162, 346.080 622.688, 348.126 630.500 C 350.316 638.862, 358.144 643.319, 365.929 640.636 C 368.168 639.865, 370 639.660, 370 640.180 C 370 640.701, 371.462 640.986, 373.250 640.813 L 376.500 640.500 376.777 626.250 L 377.055 612 373.527 612 C 371.586 612, 370 612.505, 370 613.122 C 370 613.905, 369.621 613.932, 368.750 613.212 C 366.842 611.635, 360.859 611.010, 357.462 612.033 M 509.500 612.365 C 502.601 615.538, 499.405 622.395, 501.164 630.248 C 503.062 638.722, 511.005 643.367, 518.929 640.636 C 521.168 639.865, 523 639.660, 523 640.180 C 523 640.701, 524.462 640.986, 526.250 640.813 L 529.500 640.500 529.777 626.250 L 530.055 612 526.527 612 C 524.586 612, 523 612.505, 523 613.122 C 523 613.930, 522.635 613.942, 521.700 613.166 C 519.481 611.324, 512.727 610.881, 509.500 612.365 M 599.720 612.200 C 594.397 613.626, 590.763 618.670, 590.265 625.322 C 589.741 632.314, 592.218 636.718, 598.490 639.948 C 603.157 642.351, 603.330 642.365, 607.872 640.729 C 610.580 639.753, 612.638 639.463, 612.833 640.031 C 613.017 640.564, 614.479 641, 616.083 641 L 619 641 619 626.468 L 619 611.937 614.250 612.185 C 611.638 612.322, 608.150 612.153, 606.500 611.810 C 604.850 611.467, 601.799 611.643, 599.720 612.200 M 747.071 612.696 C 741.435 615.662, 739.500 619.194, 739.500 626.518 C 739.500 632.432, 739.748 633.145, 742.965 636.464 C 746.848 640.470, 752.135 642.323, 756.942 641.362 C 760.604 640.629, 767 635.078, 767 632.632 C 767 630.259, 761.487 630.513, 759 633 C 757.900 634.100, 755.711 635, 754.135 635 C 751.289 635, 746 631.702, 746 629.927 C 746 629.414, 750.907 629, 757 629 L 768 629 768 625.960 C 768 621.946, 764.750 615.722, 761.565 613.635 C 757.552 611.005, 751.081 610.586, 747.071 612.696 M 859.462 612.064 C 857.792 612.550, 855.113 614.317, 853.509 615.991 C 851.046 618.562, 850.538 620.004, 850.242 625.267 C 849.804 633.061, 851.875 636.793, 858.388 639.946 C 863.256 642.302, 866.769 642.154, 872.233 639.363 C 874.528 638.190, 878 633.486, 878 631.550 C 878 630.021, 871.272 631.201, 869.732 633 C 866.684 636.560, 857 634.641, 857 630.477 C 857 629.370, 859.302 629.007, 867.750 628.784 L 878.500 628.500 878.180 624.536 C 877.735 619.020, 875.248 615.298, 870.456 612.979 C 866.052 610.847, 864.182 610.691, 859.462 612.064 M 911.250 612.975 C 908.605 614.599, 908 614.694, 908 613.485 C 908 612.502, 906.987 612, 905 612 L 902 612 902 626.500 L 902 641 905 641 L 908 641 908 632.577 C 908 625.021, 908.261 623.843, 910.534 621.142 C 911.928 619.485, 914.065 617.988, 915.284 617.815 C 917.007 617.570, 917.500 616.836, 917.500 614.514 C 917.500 610.785, 915.584 610.313, 911.250 612.975 M 318 626.437 L 318 641 321 641 L 324 641 324.111 632.250 C 324.173 627.438, 324.285 621.025, 324.361 618 L 324.500 612.500 321.250 612.187 L 318 611.873 318 626.437 M 709.437 613.303 C 709.162 614.019, 709.064 620.432, 709.219 627.553 L 709.500 640.500 712.750 640.813 L 716 641.127 716 626.563 L 716 612 712.969 612 C 711.301 612, 709.712 612.586, 709.437 613.303 M 788.470 614.865 C 788.817 616.441, 790.765 622.854, 792.800 629.115 L 796.500 640.500 799.840 640.500 C 803.147 640.500, 803.207 640.416, 805.954 632 C 807.634 626.852, 808.977 624.092, 809.360 625 C 809.708 625.825, 811.045 629.650, 812.332 633.500 C 814.502 639.990, 814.898 640.522, 817.762 640.808 L 820.852 641.116 825.426 627.120 C 827.942 619.422, 830 612.871, 830 612.562 C 830 612.253, 828.469 612, 826.597 612 C 823.237 612, 823.168 612.091, 821.049 619.250 C 819.869 623.237, 818.648 627.175, 818.335 628 C 818.011 628.855, 816.492 625.739, 814.800 620.750 C 811.880 612.138, 811.782 612, 808.562 612 C 805.366 612, 805.242 612.166, 803.143 619.250 C 801.961 623.237, 800.995 627.036, 800.997 627.691 C 800.999 628.346, 800.607 629.125, 800.128 629.421 C 799.648 629.718, 798.214 625.919, 796.940 620.980 L 794.625 612 791.233 612 C 788.020 612, 787.874 612.151, 788.470 614.865 M 153 618.293 C 147.853 620.893, 147.209 631.436, 152.039 634.021 C 155.200 635.713, 159.523 635.142, 161.677 632.750 C 164.567 629.538, 165.017 627.644, 163.871 623.495 C 163.106 620.725, 162.039 619.497, 159.463 618.420 C 155.419 616.730, 156.067 616.743, 153 618.293 M 359.308 618.010 C 355.725 619.453, 353.660 623.511, 354.342 627.769 C 355.070 632.318, 358.111 635, 362.538 635 C 369.701 635, 372.582 625.428, 367.077 619.923 C 364.002 616.848, 362.879 616.571, 359.308 618.010 M 512.020 618.292 C 503.890 622.381, 506.430 635, 515.382 635 C 522.157 635, 525.552 625.918, 520.750 620.637 C 517.862 617.460, 515.131 616.726, 512.020 618.292 M 601.500 618.155 C 598.185 619.968, 597 622.170, 597 626.517 C 597 635.929, 608.864 638.565, 611.909 629.830 C 613.450 625.411, 611.717 620.422, 607.966 618.483 C 604.592 616.738, 604.133 616.714, 601.500 618.155 M 749.869 618.510 C 748.421 619.296, 746.973 620.628, 746.650 621.470 C 746.155 622.759, 747.235 623, 753.500 623 C 759.780 623, 760.845 622.761, 760.347 621.463 C 759.781 619.986, 754.954 616.957, 753.300 617.040 C 752.860 617.062, 751.316 617.723, 749.869 618.510 M 860.250 618.989 C 855.297 622.009, 856.224 623, 864 623 C 867.850 623, 871 622.583, 871 622.073 C 871 620.893, 866.094 616.999, 864.615 617.004 C 864.002 617.006, 862.038 617.899, 860.250 618.989" stroke="none" fill="#fadb00" fill-rule="evenodd"/><path d="M 112.750 431.754 L 0 432.009 0 472.883 L 0 513.757 85.250 514.403 C 200.480 515.276, 997.050 514.546, 999.250 513.566 C 1000.876 512.841, 1000.999 509.872, 1000.985 471.643 C 1000.976 449.014, 1000.639 430.950, 1000.235 431.500 C 999.746 432.165, 869.922 432.333, 612.500 432 C 399.650 431.725, 174.763 431.614, 112.750 431.754 M 0.457 473 C 0.457 495.825, 0.588 505.163, 0.749 493.750 C 0.909 482.338, 0.909 463.663, 0.749 452.250 C 0.588 440.838, 0.457 450.175, 0.457 473" stroke="none" fill="#da052d" fill-rule="evenodd"/><path d="M 144 349.682 C 134.258 351.344, 122.217 356.731, 113.354 363.393 C 94.921 377.250, 84.671 400.346, 86.568 423.750 L 87.237 432 141.868 432 L 196.500 432 196.389 390.750 L 196.278 349.500 171.389 349.378 C 157.700 349.311, 145.375 349.447, 144 349.682 M 225.239 390.250 L 225.500 431.500 280.250 431.759 L 335 432.017 335 390.509 L 335 349 279.989 349 L 224.978 349 225.239 390.250 M 377 390.500 L 377 432 432 432 L 487 432 487 390.500 L 487 349 432 349 L 377 349 377 390.500 M 666 390.500 L 666 432 721.500 432 L 777 432 777 390.500 L 777 349 721.500 349 L 666 349 666 390.500 M 806 390.500 L 806 432 861 432 L 916 432 916 390.500 L 916 349 861 349 L 806 349 806 390.500 M 516 390.886 L 516 432 567.456 432 L 618.911 432 617.487 427.963 C 610.844 409.134, 593.049 386.466, 573.665 372.139 C 560.673 362.536, 537.237 352.958, 520.649 350.470 L 516 349.773 516 390.886 M 86 556.508 L 86 598.017 141.072 597.758 L 196.144 597.500 196.322 556.250 L 196.500 515 141.250 515 L 86 515 86 556.508 M 225 556.617 L 225 598.234 251.250 597.721 C 280.707 597.144, 283.968 596.591, 297.733 589.843 C 312.967 582.374, 325.880 567.526, 331.723 550.762 C 334.413 543.043, 335.947 525.859, 334.590 518.629 L 333.909 515 279.455 515 L 225 515 225 556.617 M 377 556.500 L 377 598 432 598 L 487 598 487 556.500 L 487 515 432 515 L 377 515 377 556.500 M 516 555.975 L 516 596.950 519.250 596.376 C 535.664 593.477, 548.060 589.305, 560.935 582.348 C 572.748 575.964, 579.033 571.159, 590.175 559.989 C 602.391 547.744, 612.298 532.659, 617.915 517.750 L 618.950 515 567.475 515 L 516 515 516 555.975 M 666.239 556.250 L 666.500 597.500 721.500 597.500 L 776.500 597.500 776.761 556.250 L 777.022 515 721.500 515 L 665.978 515 666.239 556.250 M 806 556.475 L 806 597.950 808.750 597.521 C 810.263 597.285, 814.650 596.826, 818.500 596.500 C 853.119 593.574, 887.738 569.206, 903.815 536.448 C 907.101 529.750, 912 517.212, 912 515.496 C 912 515.223, 888.150 515, 859 515 L 806 515 806 556.475" stroke="none" fill="#362d83" fill-rule="evenodd"/></svg>